# Blender v2.80 (sub 75) OBJ File: 'Boxes.blend'
# www.blender.org
mtllib Boxes.mtl
o Cube_Cube.001
v -1.000000 -1.000000 1.000000
v -1.000000 1.000000 1.000000
v -1.000000 -1.000000 -1.000000
v -1.000000 1.000000 -1.000000
v 1.000000 -1.000000 1.000000
v 1.000000 1.000000 1.000000
v 1.000000 -1.000000 -1.000000
v 1.000000 1.000000 -1.000000
v -1.000000 -1.000000 -0.124449
v -1.000000 -1.000000 -0.041483
v -1.000000 -1.000000 0.041483
v -1.000000 -1.000000 0.124449
v -1.000000 1.000000 0.124449
v -1.000000 1.000000 0.041483
v -1.000000 1.000000 -0.041483
v -1.000000 1.000000 -0.124449
v 1.000000 -1.000000 0.124449
v 1.000000 -1.000000 0.041483
v 1.000000 -1.000000 -0.041483
v 1.000000 -1.000000 -0.124449
v 1.000000 1.000000 -0.124449
v 1.000000 1.000000 -0.041483
v 1.000000 1.000000 0.041483
v 1.000000 1.000000 0.124449
v -1.000000 -0.600000 1.000000
v -1.000000 -0.200000 1.000000
v -1.000000 0.911567 1.000000
v -1.000000 0.958928 1.000000
v -1.000000 0.958928 -1.000000
v -1.000000 0.911567 -1.000000
v -1.000000 -0.200000 -1.000000
v -1.000000 -0.600000 -1.000000
v 1.000000 0.958928 -1.000000
v 1.000000 0.911567 -1.000000
v 1.000000 -0.200000 -1.000000
v 1.000000 -0.600000 -1.000000
v 1.000000 0.958928 1.000000
v 1.000000 0.911567 1.000000
v 1.000000 -0.200000 1.000000
v 1.000000 -0.600000 1.000000
v 1.000000 0.958928 -0.124449
v 1.000000 0.911567 -0.124449
v 1.000000 -0.200000 -0.124449
v 1.000000 -0.600000 -0.124449
v 1.000000 0.958928 -0.041483
v 1.000000 0.911567 -0.041483
v 1.000000 -0.200000 -0.041483
v 1.000000 -0.600000 -0.041483
v 1.000000 0.958928 0.041483
v 1.000000 0.911567 0.041483
v 1.000000 -0.200000 0.041483
v 1.000000 -0.600000 0.041483
v 1.000000 0.958928 0.124449
v 1.000000 0.911567 0.124449
v 1.000000 -0.200000 0.124449
v 1.000000 -0.600000 0.124449
v -1.000000 0.958928 0.124449
v -1.000000 0.911567 0.124449
v -1.000000 -0.200000 0.124449
v -1.000000 -0.600000 0.124449
v -1.000000 0.958928 0.041483
v -1.000000 0.911567 0.041483
v -1.000000 -0.200000 0.041483
v -1.000000 -0.600000 0.041483
v -1.000000 0.958928 -0.041483
v -1.000000 0.911567 -0.041483
v -1.000000 -0.200000 -0.041483
v -1.000000 -0.600000 -0.041483
v -1.000000 0.958928 -0.124449
v -1.000000 0.911567 -0.124449
v -1.000000 -0.200000 -0.124449
v -1.000000 -0.600000 -0.124449
vt 0.625000 0.200000
vt 0.575000 0.250000
vt 0.575000 0.200000
vt 0.625000 0.250000
vt 0.575000 0.500000
vt 0.625000 0.700000
vt 0.575000 0.750000
vt 0.575000 0.700000
vt 0.625000 0.750000
vt 0.575000 1.000000
vt 0.375000 0.700000
vt 0.125000 0.750000
vt 0.125000 0.700000
vt 0.875000 0.700000
vt 0.875000 0.500000
vt 0.625000 0.550000
vt 0.625000 0.500000
vt 0.875000 0.550000
vt 0.625000 0.600000
vt 0.575000 0.150000
vt 0.625000 0.600000
vt 0.625000 0.150000
vt 0.875000 0.650000
vt 0.625000 0.650000
vt 0.375000 0.500000
vt 0.125000 0.550000
vt 0.125000 0.500000
vt 0.375000 0.550000
vt 0.125000 0.600000
vt 0.375000 0.600000
vt 0.125000 0.650000
vt 0.375000 0.650000
vt 0.575000 0.550000
vt 0.575000 0.600000
vt 0.625000 0.100000
vt 0.575000 0.650000
vt 0.575000 0.100000
vt 0.575000 0.650000
vt 0.625000 0.000000
vt 0.575000 0.050000
vt 0.575000 0.000000
vt 0.625000 0.050000
vt 0.575000 0.100000
vt 0.575000 0.600000
vt 0.575000 0.100000
vt 0.575000 0.650000
vt 0.625000 0.150000
vt 0.575000 0.150000
vt 0.425000 0.150000
vt 0.375000 0.200000
vt 0.375000 0.150000
vt 0.475000 0.150000
vt 0.425000 0.200000
vt 0.525000 0.150000
vt 0.475000 0.200000
vt 0.525000 0.200000
vt 0.425000 0.100000
vt 0.375000 0.100000
vt 0.475000 0.100000
vt 0.525000 0.100000
vt 0.425000 0.050000
vt 0.375000 0.050000
vt 0.475000 0.050000
vt 0.525000 0.050000
vt 0.425000 0.000000
vt 0.375000 0.000000
vt 0.475000 0.000000
vt 0.525000 0.000000
vt 0.425000 0.650000
vt 0.475000 0.650000
vt 0.425000 0.700000
vt 0.525000 0.650000
vt 0.475000 0.700000
vt 0.525000 0.700000
vt 0.425000 0.600000
vt 0.475000 0.600000
vt 0.525000 0.600000
vt 0.425000 0.550000
vt 0.475000 0.550000
vt 0.525000 0.550000
vt 0.425000 0.500000
vt 0.475000 0.500000
vt 0.525000 0.500000
vt 0.425000 0.750000
vt 0.375000 1.000000
vt 0.375000 0.750000
vt 0.475000 0.750000
vt 0.425000 1.000000
vt 0.525000 0.750000
vt 0.475000 1.000000
vt 0.525000 1.000000
vt 0.425000 0.250000
vt 0.375000 0.250000
vt 0.475000 0.250000
vt 0.525000 0.250000
vt 0.625000 1.000000
vt 0.875000 0.750000
vt 0.875000 0.600000
vt 0.575000 0.600000
vt 0.625000 0.650000
vt 0.625000 0.100000
vt 0.575000 0.150000
vn -1.0000 0.0000 0.0000
vn 0.0000 0.0000 -1.0000
vn 1.0000 0.0000 0.0000
vn 0.0000 0.0000 1.0000
vn 0.0000 -1.0000 0.0000
vn 0.0000 1.0000 0.0000
usemtl None
s off
f 16/1/1 29/2/1 69/3/1
f 4/4/2 33/5/2 29/2/2
f 24/6/3 37/7/3 53/8/3
f 6/9/4 28/10/4 37/7/4
f 17/11/5 1/12/5 12/13/5
f 13/14/6 6/9/6 24/6/6
f 4/15/6 21/16/6 8/17/6
f 16/18/6 22/19/6 21/16/6
f 15/20/4 45/21/4 22/22/4
f 14/23/6 24/6/6 23/24/6
f 7/25/5 9/26/5 3/27/5
f 20/28/5 10/29/5 9/26/5
f 19/30/5 11/31/5 10/29/5
f 18/32/5 12/13/5 11/31/5
f 8/17/3 41/33/3 33/5/3
f 21/16/3 45/34/3 41/33/3
f 61/35/2 23/36/2 49/37/2
f 23/24/3 53/8/3 49/38/3
f 2/39/1 57/40/1 28/41/1
f 13/42/1 61/43/1 57/40/1
f 49/44/6 65/45/6 61/46/6
f 15/47/1 69/3/1 65/48/1
f 68/49/1 9/50/1 10/51/1
f 67/52/1 72/53/1 68/49/1
f 66/54/1 71/55/1 67/52/1
f 65/48/1 70/56/1 66/54/1
f 64/57/1 10/51/1 11/58/1
f 63/59/1 68/49/1 64/57/1
f 62/60/1 67/52/1 63/59/1
f 61/43/1 66/54/1 62/60/1
f 60/61/1 11/58/1 12/62/1
f 59/63/1 64/57/1 60/61/1
f 58/64/1 63/59/1 59/63/1
f 57/40/1 62/60/1 58/64/1
f 25/65/1 12/62/1 1/66/1
f 26/67/1 60/61/1 25/65/1
f 27/68/1 59/63/1 26/67/1
f 28/41/1 58/64/1 27/68/1
f 52/69/3 17/11/3 18/32/3
f 51/70/3 56/71/3 52/69/3
f 50/72/3 55/73/3 51/70/3
f 49/38/3 54/74/3 50/72/3
f 48/75/3 18/32/3 19/30/3
f 47/76/3 52/69/3 48/75/3
f 46/77/3 51/70/3 47/76/3
f 45/34/3 50/72/3 46/77/3
f 44/78/3 19/30/3 20/28/3
f 43/79/3 48/75/3 44/78/3
f 42/80/3 47/76/3 43/79/3
f 41/33/3 46/77/3 42/80/3
f 36/81/3 20/28/3 7/25/3
f 35/82/3 44/78/3 36/81/3
f 34/83/3 43/79/3 35/82/3
f 33/5/3 42/80/3 34/83/3
f 40/84/4 1/85/4 5/86/4
f 39/87/4 25/88/4 40/84/4
f 38/89/4 26/90/4 39/87/4
f 37/7/4 27/91/4 38/89/4
f 56/71/3 5/86/3 17/11/3
f 55/73/3 40/84/3 56/71/3
f 54/74/3 39/87/3 55/73/3
f 53/8/3 38/89/3 54/74/3
f 32/92/2 7/25/2 3/93/2
f 31/94/2 36/81/2 32/92/2
f 30/95/2 35/82/2 31/94/2
f 29/2/2 34/83/2 30/95/2
f 72/53/1 3/93/1 9/50/1
f 71/55/1 32/92/1 72/53/1
f 70/56/1 31/94/1 71/55/1
f 69/3/1 30/95/1 70/56/1
f 16/1/1 4/4/1 29/2/1
f 4/4/2 8/17/2 33/5/2
f 24/6/3 6/9/3 37/7/3
f 6/9/4 2/96/4 28/10/4
f 17/11/5 5/86/5 1/12/5
f 13/14/6 2/97/6 6/9/6
f 4/15/6 16/18/6 21/16/6
f 16/18/6 15/98/6 22/19/6
f 15/20/4 65/99/4 45/21/4
f 14/23/6 13/14/6 24/6/6
f 7/25/5 20/28/5 9/26/5
f 20/28/5 19/30/5 10/29/5
f 19/30/5 18/32/5 11/31/5
f 18/32/5 17/11/5 12/13/5
f 8/17/3 21/16/3 41/33/3
f 21/16/3 22/19/3 45/34/3
f 61/35/2 14/100/2 23/36/2
f 23/24/3 24/6/3 53/8/3
f 2/39/1 13/42/1 57/40/1
f 13/42/1 14/101/1 61/43/1
f 49/44/6 45/102/6 65/45/6
f 15/47/1 16/1/1 69/3/1
f 68/49/1 72/53/1 9/50/1
f 67/52/1 71/55/1 72/53/1
f 66/54/1 70/56/1 71/55/1
f 65/48/1 69/3/1 70/56/1
f 64/57/1 68/49/1 10/51/1
f 63/59/1 67/52/1 68/49/1
f 62/60/1 66/54/1 67/52/1
f 61/43/1 65/48/1 66/54/1
f 60/61/1 64/57/1 11/58/1
f 59/63/1 63/59/1 64/57/1
f 58/64/1 62/60/1 63/59/1
f 57/40/1 61/43/1 62/60/1
f 25/65/1 60/61/1 12/62/1
f 26/67/1 59/63/1 60/61/1
f 27/68/1 58/64/1 59/63/1
f 28/41/1 57/40/1 58/64/1
f 52/69/3 56/71/3 17/11/3
f 51/70/3 55/73/3 56/71/3
f 50/72/3 54/74/3 55/73/3
f 49/38/3 53/8/3 54/74/3
f 48/75/3 52/69/3 18/32/3
f 47/76/3 51/70/3 52/69/3
f 46/77/3 50/72/3 51/70/3
f 45/34/3 49/38/3 50/72/3
f 44/78/3 48/75/3 19/30/3
f 43/79/3 47/76/3 48/75/3
f 42/80/3 46/77/3 47/76/3
f 41/33/3 45/34/3 46/77/3
f 36/81/3 44/78/3 20/28/3
f 35/82/3 43/79/3 44/78/3
f 34/83/3 42/80/3 43/79/3
f 33/5/3 41/33/3 42/80/3
f 40/84/4 25/88/4 1/85/4
f 39/87/4 26/90/4 25/88/4
f 38/89/4 27/91/4 26/90/4
f 37/7/4 28/10/4 27/91/4
f 56/71/3 40/84/3 5/86/3
f 55/73/3 39/87/3 40/84/3
f 54/74/3 38/89/3 39/87/3
f 53/8/3 37/7/3 38/89/3
f 32/92/2 36/81/2 7/25/2
f 31/94/2 35/82/2 36/81/2
f 30/95/2 34/83/2 35/82/2
f 29/2/2 33/5/2 34/83/2
f 72/53/1 32/92/1 3/93/1
f 71/55/1 31/94/1 32/92/1
f 70/56/1 30/95/1 31/94/1
f 69/3/1 29/2/1 30/95/1
